<svg xmlns="http://www.w3.org/2000/svg" viewBox="0 0 84.7 33.9"><title>Векторный смарт-объект</title><path d="M8.95,5.35A1.35,1.35,0,0,0,7.59,4H5.51A1.39,1.39,0,0,0,4.15,5.35v24.8A1.35,1.35,0,0,0,5.51,31.5H7.59a1.35,1.35,0,0,0,1.36-1.36V25h3.2v5.18A4.55,4.55,0,0,1,7.59,34.7H5.51A4.58,4.58,0,0,1,1,30.14V5.35A4.58,4.58,0,0,1,5.51.79H7.59a4.55,4.55,0,0,1,4.55,4.55V9.12H8.95Z" transform="translate(-0.96 -0.79)" fill="#fc9a00"/><path d="M40.91,24.72l-1.4,10H36.26l1.79-12.93h8.18L43.87,3.94h-.24l-2,15.35h-3.2L40.86.79h5.76l3.25,23.92Zm9.25,2.47,1.07,7.51H48l-1.11-7.51Z" transform="translate(-0.96 -0.79)" fill="#fc9a00"/><path d="M81.74,4V34.7h-3.2V4H74.62V.79h11V4Z" transform="translate(-0.96 -0.79)" fill="#fc9a00"/></svg>