<svg xmlns="http://www.w3.org/2000/svg" viewBox="0 0 84.99 64.55"><title>Векторный смарт-объект</title><path d="M8.95,5.35A1.35,1.35,0,0,0,7.59,4H5.51A1.39,1.39,0,0,0,4.15,5.35v24.8A1.35,1.35,0,0,0,5.51,31.5H7.59a1.35,1.35,0,0,0,1.36-1.36V25h3.2v5.18A4.55,4.55,0,0,1,7.59,34.7H5.51A4.58,4.58,0,0,1,1,30.14V5.35A4.58,4.58,0,0,1,5.51.79H7.59a4.55,4.55,0,0,1,4.55,4.55V9.12H8.95Z" transform="translate(-0.67 -0.79)" fill="#fc9a00"/><path d="M40.91,24.72l-1.4,10H36.26l1.79-12.93h8.18L43.87,3.94h-.24l-2,15.35h-3.2L40.86.79h5.76l3.25,23.92Zm9.25,2.47,1.07,7.51H48l-1.11-7.51Z" transform="translate(-0.67 -0.79)" fill="#fc9a00"/><path d="M81.74,4V34.7h-3.2V4H74.62V.79h11V4Z" transform="translate(-0.67 -0.79)" fill="#fc9a00"/><path d="M5.71,55.34v1H4.52V55.28c0-1-.4-1.62-1.31-1.62s-1.31.61-1.31,1.62V61.2c0,1,.42,1.62,1.31,1.62s1.31-.61,1.31-1.62V59.74H5.71v1.39c0,1.7-.8,2.82-2.53,2.82S.67,62.83.67,61.14V55.34c0-1.7.8-2.82,2.51-2.82S5.71,53.65,5.71,55.34Z" transform="translate(-0.67 -0.79)" fill="#aaabb2"/><path d="M8.41,53.77V63.84H7.16V52.64h5.25v11.2H11.16V53.77Z" transform="translate(-0.67 -0.79)" fill="#aaabb2"/><path d="M18,57.6v1.12H15.26v4h3.36v1.14H14V52.64h4.61v1.14H15.26V57.6Z" transform="translate(-0.67 -0.79)" fill="#aaabb2"/><path d="M25.08,65.35v-1.5H20.2V52.64h1.23V62.71h2.75V52.64h1.26v10.1h.85v2.61Z" transform="translate(-0.67 -0.79)" fill="#aaabb2"/><path d="M29,61.58l-.43,2.26H27.37l2.14-11.2h1.81l2.15,11.2H32.22l-.43-2.26Zm.16-1.07h2.5L30.35,54Z" transform="translate(-0.67 -0.79)" fill="#aaabb2"/><path d="M37.28,52.64c1.75,0,2.43.83,2.43,2.48v.53c0,1.18-.34,1.92-1.31,2.23,1.09.3,1.5,1.17,1.5,2.4v.94a2.3,2.3,0,0,1-2.56,2.63H34.76V52.64ZM37,57.39c1,0,1.5-.32,1.5-1.49v-.66c0-1-.34-1.47-1.23-1.47H36v3.62Zm.37,5.31c.91,0,1.33-.48,1.33-1.52v-1c0-1.25-.5-1.66-1.57-1.66H36v4.18Z" transform="translate(-0.67 -0.79)" fill="#aaabb2"/><path d="M43.07,63.84V53.77H41V52.64h5.38v1.14H44.32V63.84Z" transform="translate(-0.67 -0.79)" fill="#aaabb2"/><path d="M47.53,55.34c0-1.71.85-2.82,2.56-2.82s2.58,1.1,2.58,2.82v5.79c0,1.7-.85,2.82-2.58,2.82s-2.56-1.12-2.56-2.82Zm1.23,5.86c0,1,.43,1.62,1.33,1.62s1.33-.59,1.33-1.62V55.28c0-1-.42-1.62-1.33-1.62s-1.33.61-1.33,1.62Z" transform="translate(-0.67 -0.79)" fill="#aaabb2"/><path d="M55.88,63.84V53.77H53.82V52.64H59.2v1.14H57.13V63.84Z" transform="translate(-0.67 -0.79)" fill="#aaabb2"/><path d="M62.89,52.64c1.76,0,2.51,1,2.51,2.74v1.34c0,1.78-.83,2.71-2.61,2.71h-1.1v4.42H60.44V52.64Zm-.1,5.67c.93,0,1.38-.43,1.38-1.5V55.31c0-1-.37-1.54-1.28-1.54h-1.2V58.3Z" transform="translate(-0.67 -0.79)" fill="#aaabb2"/><path d="M68,61.58l-.43,2.26H66.38l2.14-11.2h1.81l2.15,11.2H71.23l-.43-2.26Zm.16-1.07h2.5L69.35,54Z" transform="translate(-0.67 -0.79)" fill="#aaabb2"/><path d="M75,58.8v5H73.77V52.64H75v5h2.75v-5H79v11.2H77.77v-5Z" transform="translate(-0.67 -0.79)" fill="#aaabb2"/><path d="M85.56,55.34v1H84.38V55.28c0-1-.4-1.62-1.31-1.62s-1.31.61-1.31,1.62V61.2c0,1,.42,1.62,1.31,1.62s1.31-.61,1.31-1.62V59.74h1.18v1.39c0,1.7-.8,2.82-2.53,2.82s-2.51-1.12-2.51-2.82V55.34c0-1.7.8-2.82,2.51-2.82S85.56,53.65,85.56,55.34Z" transform="translate(-0.67 -0.79)" fill="#aaabb2"/></svg>