<svg xmlns="http://www.w3.org/2000/svg"><symbol id="icon_logonotext" viewBox="0 0 84.7 33.9"><path d="M8.95 5.35A1.35 1.35 0 0 0 7.59 4H5.51a1.39 1.39 0 0 0-1.36 1.35v24.8a1.35 1.35 0 0 0 1.36 1.35h2.08a1.35 1.35 0 0 0 1.36-1.36V25h3.2v5.18a4.55 4.55 0 0 1-4.56 4.52H5.51A4.58 4.58 0 0 1 1 30.14V5.35A4.58 4.58 0 0 1 5.51.79h2.08a4.55 4.55 0 0 1 4.55 4.55v3.78H8.95zm31.96 19.37l-1.4 10h-3.25l1.79-12.93h8.18L43.87 3.94h-.24l-2 15.35h-3.2L40.86.79h5.76l3.25 23.92zm9.25 2.47l1.07 7.51H48l-1.11-7.51zM81.74 4v30.7h-3.2V4h-3.92V.79h11V4z" transform="translate(-.96 -.79)"/></symbol></svg>